<!DOCTYPE svg PUBLIC "-//W3C//DTD SVG 1.1//EN" "http://www.w3.org/Graphics/SVG/1.1/DTD/svg11.dtd">

<!-- Uploaded to: SVG Repo, www.svgrepo.com, Transformed by: SVG Repo Mixer Tools -->
<svg width="32px" height="32px" viewBox="-51.2 -51.2 614.40 614.40" xmlns="http://www.w3.org/2000/svg" fill="#000000" stroke="#000000" stroke-width="0.00512">

<g id="SVGRepo_bgCarrier" stroke-width="0" transform="translate(184.32,184.32), scale(0.28)">

<rect x="-51.2" y="-51.2" width="614.40" height="614.40" rx="307.2" fill="#715df2" strokewidth="0"/>

</g>

<g id="SVGRepo_tracerCarrier" stroke-linecap="round" stroke-linejoin="round"/>

<g id="SVGRepo_iconCarrier">

<path fill="lightgray" stroke="black" stroke-width="25" d="M324.52 191.715a97.542 97.542 0 0 0-4.228-4.229L256 22.303l-64.291 165.183a93.225 93.225 0 0 0-4.222 4.224L22.301 255.998l165.179 64.291a97.542 97.542 0 0 0 4.229 4.229L256 489.697l64.284-165.174a95.208 95.208 0 0 0 4.237-4.233l165.178-64.287zM256 297.773c-23.067 0-41.77-18.705-41.77-41.775 0-23.067 18.703-41.767 41.77-41.767 23.068 0 41.767 18.7 41.767 41.767 0 23.07-18.7 41.775-41.767 41.775z"/>

</g>

</svg>